<svg xmlns="http://www.w3.org/2000/svg" xml:space="preserve" width="714.437" height="825.325" viewBox="0 0 714.437 825.325"><g style="display:inline"><path d="M218.782 59.509c5.53.817 304.391 330.261 310.643 337.382 4.255 4.689 21.268 28.715 21.268 28.715L576 469.688v62.336l-32.413-66.146-22.708-34.648L244.84 126.128s-23.743-27.657-26.06-66.62m714.436 0c-5.53.817-304.391 330.261-310.643 337.382-4.255 4.689-21.268 28.715-21.268 28.715L576 469.688v62.336l32.413-66.146 22.708-34.648L907.16 126.128s23.743-27.657 26.06-66.62" style="display:inline;opacity:1;fill:#000;fill-opacity:1;stroke:none;stroke-width:12;stroke-linecap:round;stroke-linejoin:round" transform="translate(-218.782 -59.509)"/><path d="M576 129.523s-57.53 42.783-128.796 58.363c-2.335 1.913 20.621 22.983 20.621 22.983C553.518 238.856 576 305.176 576 305.176V254.41s-20.783-37.077-64.64-57.274c41.837-17.888 64.64-35.745 64.64-35.745Zm0 0s57.53 42.783 128.796 58.363c2.335 1.913-20.621 22.983-20.621 22.983C598.482 238.856 576 305.176 576 305.176V254.41s20.783-37.077 64.64-57.274C598.803 179.248 576 161.391 576 161.391Z" style="opacity:1;fill:#000;fill-opacity:1;stroke:none;stroke-width:12;stroke-linecap:round;stroke-linejoin:round" transform="translate(-218.782 -59.509)"/><path d="M434.467 232.896c-7.9 0-15.627.753-23.123 2.194l22.996 23.703h.127c56.12 0 102.045 48.047 102.045 108.488 0 11.425-1.641 22.407-4.682 32.705l.059-.097 18.199 24.865c7.903-17.466 12.32-36.966 12.32-57.473 0-73.694-57.042-134.385-127.941-134.385m-89.826 38.792c-23.555 24.444-38.118 58.359-38.118 95.593 0 73.695 57.044 134.387 127.944 134.387 32.309 0 61.74-12.603 84.207-33.297l-14.832-21.433c-18.242 17.938-42.653 28.832-69.375 28.832-56.12 0-102.047-48.048-102.047-108.489 0-29.906 11.245-56.778 29.404-76.297zm372.892-38.792c7.9 0 15.627.753 23.123 2.194l-22.996 23.703h-.127c-56.12 0-102.045 48.047-102.045 108.488 0 11.425 1.641 22.407 4.682 32.705l-.059-.097-18.199 24.865c-7.903-17.466-12.32-36.966-12.32-57.473 0-73.694 57.042-134.385 127.941-134.385m89.826 38.792c23.555 24.444 38.117 58.359 38.117 95.593 0 73.695-57.044 134.387-127.943 134.387-32.309 0-61.74-12.603-84.207-33.297l14.832-21.433c18.242 17.938 42.653 28.832 69.375 28.832 56.12 0 102.047-48.048 102.047-108.489 0-29.906-11.245-56.778-29.404-76.297z" style="baseline-shift:baseline;display:inline;overflow:visible;opacity:1;vector-effect:none;fill:#000;fill-opacity:1;stroke-linecap:round;stroke-linejoin:round;stop-color:#000;stop-opacity:1" transform="translate(-218.782 -59.509)"/><path d="M402.158 334.516c-9.795 10.126-15.285 23.761-15.285 37.966 0 29.899 23.83 54.137 53.229 54.137 13.221 0 25.97-5.004 35.763-14.039l-30.238-32.025c-.022.013-13.512 8.23-18.211 14.55a1.2 1.2 0 0 1-1.404.416c-1.945-.985-.28-30.342.04-35.697v-.002zm347.684 0c9.795 10.126 15.285 23.761 15.285 37.966 0 29.899-23.83 54.137-53.229 54.137-13.222 0-25.97-5.004-35.763-14.039l30.238-32.025c.022.013 13.512 8.23 18.21 14.55.462.62 1.173.526 1.405.416 1.945-.985.28-30.342-.04-35.697v-.002z" style="opacity:1;fill:#000;fill-opacity:1;stroke-width:28.8546;stroke-linecap:round;stroke-linejoin:round;stroke-opacity:.548016" transform="translate(-218.782 -59.509)"/><path d="m411.344 235.09-76.06-86.805C510.728 133.012 576 59.703 576 59.703v34.43s-73.82 64.185-185.04 75.933l57.257 63.6zm329.312 0 76.06-86.805C641.272 133.012 576 59.703 576 59.703v34.43s73.82 64.185 185.04 75.933l-57.257 63.6z" style="opacity:1;fill:#000;fill-opacity:1;stroke:none;stroke-width:25.897;stroke-linecap:round;stroke-linejoin:round;stroke-dasharray:none;stroke-opacity:.548016" transform="translate(-218.782 -59.509)"/><path d="m233.474 156.73.156 187.335 26.832-.713 1.549-116.122 44.584 47.897 19.18-20.875zm685.052 0-.156 187.335-26.832-.713-1.549-116.122-44.585 47.897-19.18-20.875zM277.027 374.948c49.137 218.044 237.126 140.208 253.71 121.782l14.466 28s-15.408 14.631-62.797 25.112C323.939 584.237 263.967 441.23 263.967 441.23l-30.997-37.212-.01-29.211zm597.946 0c-49.137 218.044-237.126 140.208-253.71 121.782l-14.466 28s15.408 14.631 62.797 25.112C828.06 584.237 888.033 441.23 888.033 441.23l30.997-37.212.01-29.211z" style="display:inline;opacity:1;fill:#000;fill-opacity:1;stroke:none;stroke-width:25.897;stroke-linecap:round;stroke-linejoin:round;stroke-dasharray:none;stroke-opacity:.548016" transform="translate(-218.782 -59.509)"/><path d="M232.969 404.018c1.922 34.127-7.796 206.408 151.556 359.802l21.452-23.013c-133.71-129.17-139.064-261.767-142.01-299.577ZM545.203 524.73l-24.67 13.627 14.428 29.713-.75 268.565c-42.186-24.719-77.702-50.616-107.615-76.856l-21.092 23.25c41.406 36.087 92.831 70.73 156.717 101.805l.238-324.604zm373.828-120.712c-1.923 34.127 7.796 206.408-151.557 359.802l-21.45-23.013c133.708-129.17 139.063-261.767 142.01-299.577ZM606.797 524.73l24.67 13.627-14.428 29.713.75 268.565c42.186-24.719 77.701-50.616 107.615-76.856l21.092 23.25c-41.406 36.087-92.831 70.73-156.717 101.805l-.238-324.604Z" style="display:inline;opacity:1;fill:#000;fill-opacity:1;stroke:none;stroke-width:25.897;stroke-linecap:round;stroke-linejoin:round;stroke-dasharray:none;stroke-opacity:.548016" transform="translate(-218.782 -59.509)"/><path d="m482.406 549.842.682 146.949-56.492 62.988c.653 9.802 8.308 18.317 21.785 18.235l61.208-69.562.82-166.333zm187.188 0-.682 146.949 56.492 62.988c-.653 9.802-8.308 18.317-21.785 18.235l-61.208-69.562-.82-166.333Z" style="opacity:1;fill:#000;fill-opacity:1;stroke:none;stroke-width:25.897;stroke-linecap:round;stroke-linejoin:round;stroke-dasharray:none;stroke-opacity:.548016" transform="translate(-218.782 -59.509)"/><path d="M439.336 576.145c-15.334-.001-27.764 12.43-27.764 27.763s12.431 27.763 27.764 27.762c15.332 0 27.761-12.43 27.762-27.762 0-15.333-12.43-27.763-27.762-27.763m0 17.746c5.533 0 10.018 4.485 10.018 10.017 0 5.533-4.485 10.018-10.018 10.018s-10.018-4.485-10.018-10.018c0-5.532 4.485-10.017 10.018-10.017m273.328-17.746c15.334-.001 27.764 12.43 27.764 27.763s-12.431 27.763-27.764 27.762c-15.332 0-27.761-12.43-27.762-27.762 0-15.333 12.429-27.763 27.762-27.763m0 17.746c-5.533 0-10.018 4.485-10.018 10.017 0 5.533 4.485 10.018 10.018 10.018s10.018-4.485 10.018-10.018c0-5.532-4.485-10.017-10.018-10.017" style="opacity:1;fill:#000;fill-opacity:1;stroke:none;stroke-width:14.3703;stroke-linecap:round;stroke-linejoin:round;stroke-dasharray:none;stroke-opacity:.548016" transform="translate(-218.782 -59.509)"/><path d="m384.483 678.406 19.48-20.98c-24.449-30.913-36.783-54.235-36.783-54.235 28.384 7.868 45.68 9.076 45.68 9.076l6.603-27.747c-46.37-1.967-104.813-37.837-107.06-37.556 20.233 73.91 72.08 131.442 72.08 131.442m383.034 0-19.48-20.98c24.449-30.913 36.783-54.235 36.783-54.235-28.384 7.868-45.68 9.076-45.68 9.076l-6.603-27.747c46.37-1.967 104.813-37.837 107.06-37.556-20.233 73.91-72.08 131.442-72.08 131.442M385.647 720.112c2.027-.185 37.605-41.355 37.605-41.355 2.58-2.948 1.752-51.072 1.752-51.072l28.038.365-.8 58.381c-1.474 6.634-37.973 46.267-46.265 54.376-16.402-3.502-19.593-7.98-20.33-20.695m380.706 0c-2.027-.185-37.605-41.355-37.605-41.355-2.58-2.948-1.752-51.072-1.752-51.072l-28.039.365.8 58.381c1.475 6.634 37.973 46.267 46.266 54.376 16.402-3.502 19.593-7.98 20.33-20.695" style="opacity:1;fill:#000;fill-opacity:1;stroke:none;stroke-width:12;stroke-linecap:round;stroke-linejoin:round;stroke-dasharray:none;stroke-opacity:.548016" transform="translate(-218.782 -59.509)"/></g></svg>